<svg width="16" height="16" viewBox="0 0 16 16" fill="none" xmlns="http://www.w3.org/2000/svg">
<path d="M7.0274 2.4509C7.13573 2.34725 7.28046 2.29033 7.43037 2.29241C7.58028 2.29449 7.72337 2.35541 7.82878 2.46202C7.93419 2.56863 7.99348 2.7124 7.99387 2.86233C7.99425 3.01225 7.9357 3.15632 7.83083 3.26347L3.61598 7.42861H13.716C13.8675 7.42861 14.0129 7.48882 14.12 7.59598C14.2272 7.70315 14.2874 7.84849 14.2874 8.00004C14.2874 8.1516 14.2272 8.29694 14.12 8.4041C14.0129 8.51127 13.8675 8.57147 13.716 8.57147H3.61712L7.83083 12.7349C7.93866 12.8414 7.99975 12.9865 8.00066 13.138C8.00157 13.2896 7.94223 13.4354 7.83569 13.5432C7.72915 13.651 7.58414 13.7121 7.43255 13.713C7.28097 13.7139 7.13523 13.6546 7.0274 13.548L1.92626 8.50747C1.85905 8.44104 1.8057 8.36193 1.76928 8.27473C1.73286 8.18753 1.71411 8.09397 1.71411 7.99947C1.71411 7.90497 1.73286 7.81141 1.76928 7.72421C1.8057 7.63701 1.85905 7.5579 1.92626 7.49147L7.0274 2.4509Z" fill="#6529FE"/>
</svg>
