<svg width="14" height="14" viewBox="0 0 14 14" fill="none" xmlns="http://www.w3.org/2000/svg">
<path d="M6.99994 3.45334C7.14846 3.45334 7.2909 3.39434 7.39592 3.28932C7.50094 3.1843 7.55994 3.04186 7.55994 2.89334C7.55994 2.74482 7.50094 2.60238 7.39592 2.49736C7.2909 2.39234 7.14846 2.33334 6.99994 2.33334C6.85142 2.33334 6.70898 2.39234 6.60396 2.49736C6.49894 2.60238 6.43994 2.74482 6.43994 2.89334C6.43994 3.04186 6.49894 3.1843 6.60396 3.28932C6.70898 3.39434 6.85142 3.45334 6.99994 3.45334ZM6.99994 7.56001C7.14846 7.56001 7.2909 7.50101 7.39592 7.39599C7.50094 7.29097 7.55994 7.14853 7.55994 7.00001C7.55994 6.85149 7.50094 6.70905 7.39592 6.60403C7.2909 6.49901 7.14846 6.44001 6.99994 6.44001C6.85142 6.44001 6.70898 6.49901 6.60396 6.60403C6.49894 6.70905 6.43994 6.85149 6.43994 7.00001C6.43994 7.14853 6.49894 7.29097 6.60396 7.39599C6.70898 7.50101 6.85142 7.56001 6.99994 7.56001ZM6.99994 11.6667C7.14846 11.6667 7.2909 11.6077 7.39592 11.5027C7.50094 11.3976 7.55994 11.2552 7.55994 11.1067C7.55994 10.9582 7.50094 10.8157 7.39592 10.7107C7.2909 10.6057 7.14846 10.5467 6.99994 10.5467C6.85142 10.5467 6.70898 10.6057 6.60396 10.7107C6.49894 10.8157 6.43994 10.9582 6.43994 11.1067C6.43994 11.2552 6.49894 11.3976 6.60396 11.5027C6.70898 11.6077 6.85142 11.6667 6.99994 11.6667Z" stroke="#D7D2FF" stroke-width="1.5" stroke-linecap="round" stroke-linejoin="round"/>
</svg>
