<svg width="16" height="16" viewBox="0 0 16 16" fill="none" xmlns="http://www.w3.org/2000/svg">
<path d="M13.265 6.26505L8.26505 11.265C8.19473 11.3353 8.09942 11.3747 8.00005 11.3747C7.90067 11.3747 7.80536 11.3353 7.73505 11.265L2.73505 6.26505C2.66881 6.19396 2.63274 6.09994 2.63446 6.00278C2.63617 5.90563 2.67553 5.81294 2.74423 5.74423C2.81294 5.67553 2.90563 5.63617 3.00278 5.63446C3.09993 5.63274 3.19396 5.66881 3.26505 5.73505L8.00005 10.4694L12.735 5.73505C12.8061 5.66881 12.9002 5.63274 12.9973 5.63446C13.0945 5.63617 13.1872 5.67553 13.2559 5.74423C13.3246 5.81294 13.3639 5.90563 13.3656 6.00278C13.3673 6.09994 13.3313 6.19396 13.265 6.26505Z" fill="white"/>
</svg>
