<svg width="16" height="16" viewBox="0 0 16 16" fill="none" xmlns="http://www.w3.org/2000/svg">
<path d="M4.16667 3C4.81067 3 5.33333 3.52267 5.33333 4.16667V5.33333H4.16667C3.85725 5.33333 3.5605 5.21042 3.34171 4.99163C3.12292 4.77283 3 4.47609 3 4.16667C3 3.85725 3.12292 3.5605 3.34171 3.34171C3.5605 3.12292 3.85725 3 4.16667 3ZM6.33333 5.33333V4.16667C6.33333 3.73814 6.20626 3.31924 5.96818 2.96293C5.73011 2.60663 5.39172 2.32892 4.99581 2.16493C4.59991 2.00094 4.16426 1.95803 3.74397 2.04163C3.32368 2.12523 2.93762 2.33159 2.6346 2.6346C2.33159 2.93762 2.12523 3.32368 2.04163 3.74397C1.95803 4.16426 2.00094 4.59991 2.16493 4.99581C2.32892 5.39172 2.60663 5.73011 2.96293 5.96818C3.31924 6.20626 3.73814 6.33333 4.16667 6.33333H5.33333V9.66667H4.16667C3.73814 9.66667 3.31924 9.79374 2.96293 10.0318C2.60663 10.2699 2.32892 10.6083 2.16493 11.0042C2.00094 11.4001 1.95803 11.8357 2.04163 12.256C2.12523 12.6763 2.33159 13.0624 2.6346 13.3654C2.93762 13.6684 3.32368 13.8748 3.74397 13.9584C4.16426 14.042 4.59991 13.9991 4.99581 13.8351C5.39172 13.6711 5.73011 13.3934 5.96818 13.0371C6.20626 12.6808 6.33333 12.2619 6.33333 11.8333V10.6667H9.66667V11.8333C9.66667 12.2619 9.79374 12.6808 10.0318 13.0371C10.2699 13.3934 10.6083 13.6711 11.0042 13.8351C11.4001 13.9991 11.8357 14.042 12.256 13.9584C12.6763 13.8748 13.0624 13.6684 13.3654 13.3654C13.6684 13.0624 13.8748 12.6763 13.9584 12.256C14.042 11.8357 13.9991 11.4001 13.8351 11.0042C13.6711 10.6083 13.3934 10.2699 13.0371 10.0318C12.6808 9.79374 12.2619 9.66667 11.8333 9.66667H10.6667V6.33333H11.8333C12.2619 6.33333 12.6808 6.20626 13.0371 5.96818C13.3934 5.73011 13.6711 5.39172 13.8351 4.99581C13.9991 4.59991 14.042 4.16426 13.9584 3.74397C13.8748 3.32368 13.6684 2.93762 13.3654 2.6346C13.0624 2.33159 12.6763 2.12523 12.256 2.04163C11.8357 1.95803 11.4001 2.00094 11.0042 2.16493C10.6083 2.32892 10.2699 2.60663 10.0318 2.96293C9.79374 3.31924 9.66667 3.73814 9.66667 4.16667V5.33333H6.33333ZM6.33333 6.33333H9.66667V9.66667H6.33333V6.33333ZM10.6667 5.33333V4.16667C10.6667 3.93592 10.7351 3.71036 10.8633 3.5185C10.9915 3.32664 11.1737 3.17711 11.3869 3.08881C11.6 3.00051 11.8346 2.9774 12.0609 3.02242C12.2872 3.06743 12.4951 3.17855 12.6583 3.34171C12.8215 3.50487 12.9326 3.71275 12.9776 3.93906C13.0226 4.16537 12.9995 4.39995 12.9112 4.61313C12.8229 4.82631 12.6734 5.00852 12.4815 5.13672C12.2896 5.26491 12.0641 5.33333 11.8333 5.33333H10.6667ZM10.6667 10.6667H11.8333C12.0641 10.6667 12.2896 10.7351 12.4815 10.8633C12.6734 10.9915 12.8229 11.1737 12.9112 11.3869C12.9995 11.6 13.0226 11.8346 12.9776 12.0609C12.9326 12.2872 12.8215 12.4951 12.6583 12.6583C12.4951 12.8215 12.2872 12.9326 12.0609 12.9776C11.8346 13.0226 11.6 12.9995 11.3869 12.9112C11.1737 12.8229 10.9915 12.6734 10.8633 12.4815C10.7351 12.2896 10.6667 12.0641 10.6667 11.8333V10.6667ZM5.33333 10.6667V11.8333C5.33333 12.0641 5.26491 12.2896 5.13672 12.4815C5.00852 12.6734 4.82631 12.8229 4.61313 12.9112C4.39995 12.9995 4.16537 13.0226 3.93906 12.9776C3.71275 12.9326 3.50487 12.8215 3.34171 12.6583C3.17855 12.4951 3.06743 12.2872 3.02242 12.0609C2.9774 11.8346 3.00051 11.6 3.08881 11.3869C3.17711 11.1737 3.32664 10.9915 3.5185 10.8633C3.71036 10.7351 3.93592 10.6667 4.16667 10.6667H5.33333Z" fill="#F3F2FF"/>
</svg>
