<svg width="14" height="15" viewBox="0 0 14 15" fill="none" xmlns="http://www.w3.org/2000/svg">
<path d="M3.64583 3.125C4.20933 3.125 4.66667 3.58233 4.66667 4.14583V5.16667H3.64583C3.37509 5.16667 3.11544 5.05912 2.924 4.86767C2.73255 4.67623 2.625 4.41658 2.625 4.14583C2.625 3.87509 2.73255 3.61544 2.924 3.424C3.11544 3.23255 3.37509 3.125 3.64583 3.125ZM5.54167 5.16667V4.14583C5.54167 3.77087 5.43048 3.40433 5.22216 3.09257C5.01384 2.7808 4.71776 2.5378 4.37134 2.39431C4.02492 2.25082 3.64373 2.21328 3.27598 2.28643C2.90822 2.35958 2.57041 2.54014 2.30528 2.80528C2.04014 3.07041 1.85958 3.40822 1.78643 3.77598C1.71328 4.14373 1.75082 4.52492 1.89431 4.87134C2.0378 5.21776 2.2808 5.51384 2.59257 5.72216C2.90433 5.93048 3.27087 6.04167 3.64583 6.04167H4.66667V8.95833H3.64583C3.27087 8.95833 2.90433 9.06952 2.59257 9.27784C2.2808 9.48616 2.0378 9.78225 1.89431 10.1287C1.75082 10.4751 1.71328 10.8563 1.78643 11.224C1.85958 11.5918 2.04014 11.9296 2.30528 12.1947C2.57041 12.4599 2.90822 12.6404 3.27598 12.7136C3.64373 12.7867 4.02492 12.7492 4.37134 12.6057C4.71776 12.4622 5.01384 12.2192 5.22216 11.9074C5.43048 11.5957 5.54167 11.2291 5.54167 10.8542V9.83333H8.45833V10.8542C8.45833 11.2291 8.56952 11.5957 8.77784 11.9074C8.98616 12.2192 9.28225 12.4622 9.62866 12.6057C9.97508 12.7492 10.3563 12.7867 10.724 12.7136C11.0918 12.6404 11.4296 12.4599 11.6947 12.1947C11.9599 11.9296 12.1404 11.5918 12.2136 11.224C12.2867 10.8563 12.2492 10.4751 12.1057 10.1287C11.9622 9.78225 11.7192 9.48616 11.4074 9.27784C11.0957 9.06952 10.7291 8.95833 10.3542 8.95833H9.33333V6.04167H10.3542C10.7291 6.04167 11.0957 5.93048 11.4074 5.72216C11.7192 5.51384 11.9622 5.21776 12.1057 4.87134C12.2492 4.52492 12.2867 4.14373 12.2136 3.77598C12.1404 3.40822 11.9599 3.07041 11.6947 2.80528C11.4296 2.54014 11.0918 2.35958 10.724 2.28643C10.3563 2.21328 9.97508 2.25082 9.62866 2.39431C9.28225 2.5378 8.98616 2.7808 8.77784 3.09257C8.56952 3.40433 8.45833 3.77087 8.45833 4.14583V5.16667H5.54167ZM5.54167 6.04167H8.45833V8.95833H5.54167V6.04167ZM9.33333 5.16667V4.14583C9.33333 3.94393 9.3932 3.74656 9.50538 3.57869C9.61755 3.41081 9.77698 3.27997 9.96351 3.20271C10.15 3.12544 10.3553 3.10523 10.5533 3.14462C10.7513 3.184 10.9332 3.28123 11.076 3.424C11.2188 3.56676 11.316 3.74866 11.3554 3.94668C11.3948 4.1447 11.3746 4.34996 11.2973 4.53649C11.22 4.72302 11.0892 4.88246 10.9213 4.99463C10.7534 5.1068 10.5561 5.16667 10.3542 5.16667H9.33333ZM9.33333 9.83333H10.3542C10.5561 9.83333 10.7534 9.8932 10.9213 10.0054C11.0892 10.1175 11.22 10.277 11.2973 10.4635C11.3746 10.65 11.3948 10.8553 11.3554 11.0533C11.316 11.2513 11.2188 11.4332 11.076 11.576C10.9332 11.7188 10.7513 11.816 10.5533 11.8554C10.3553 11.8948 10.15 11.8746 9.96351 11.7973C9.77698 11.72 9.61755 11.5892 9.50538 11.4213C9.3932 11.2534 9.33333 11.0561 9.33333 10.8542V9.83333ZM4.66667 9.83333V10.8542C4.66667 11.0561 4.6068 11.2534 4.49463 11.4213C4.38246 11.5892 4.22302 11.72 4.03649 11.7973C3.84996 11.8746 3.6447 11.8948 3.44668 11.8554C3.24866 11.816 3.06676 11.7188 2.924 11.576C2.78123 11.4332 2.684 11.2513 2.64462 11.0533C2.60523 10.8553 2.62544 10.65 2.70271 10.4635C2.77997 10.277 2.91081 10.1175 3.07869 10.0054C3.24656 9.8932 3.44393 9.83333 3.64583 9.83333H4.66667Z" fill="#1F1F1F"/>
</svg>
