<svg width="17" height="16" viewBox="0 0 17 16" fill="none" xmlns="http://www.w3.org/2000/svg">
<path d="M6.5 2.33333V13.6667M2.5 6.26667C2.5 4.77333 2.5 4.02667 2.79067 3.456C3.04633 2.95426 3.45426 2.54633 3.956 2.29067C4.52667 2 5.27333 2 6.76667 2H10.2333C11.7267 2 12.4733 2 13.044 2.29067C13.5457 2.54633 13.9537 2.95426 14.2093 3.456C14.5 4.02667 14.5 4.77333 14.5 6.26667V9.73333C14.5 11.2267 14.5 11.9733 14.2093 12.544C13.9537 13.0457 13.5457 13.4537 13.044 13.7093C12.4733 14 11.7267 14 10.2333 14H6.76667C5.27333 14 4.52667 14 3.956 13.7093C3.45426 13.4537 3.04633 13.0457 2.79067 12.544C2.5 11.9733 2.5 11.2267 2.5 9.73333V6.26667Z" stroke="black" stroke-width="1.5" stroke-linecap="round" stroke-linejoin="round"/>
</svg>
