<svg width="14" height="14" viewBox="0 0 14 14" fill="none" xmlns="http://www.w3.org/2000/svg">
<path d="M11.6667 5.24999L10.5029 11.8685C10.4554 12.1388 10.3142 12.3837 10.104 12.5602C9.89384 12.7366 9.62818 12.8333 9.35375 12.8333H4.64625C4.37182 12.8333 4.10616 12.7366 3.89598 12.5602C3.6858 12.3837 3.54456 12.1388 3.49708 11.8685L2.33333 5.24999M12.25 3.49999H8.96875M8.96875 3.49999V2.33332C8.96875 2.0239 8.84583 1.72716 8.62704 1.50837C8.40825 1.28957 8.1115 1.16666 7.80208 1.16666H6.19792C5.8885 1.16666 5.59175 1.28957 5.37296 1.50837C5.15417 1.72716 5.03125 2.0239 5.03125 2.33332V3.49999M8.96875 3.49999H5.03125M1.75 3.49999H5.03125" stroke="#C44D4D" stroke-width="1.5" stroke-linecap="round" stroke-linejoin="round"/>
</svg>
