<svg width="16" height="16" viewBox="0 0 16 16" fill="none" xmlns="http://www.w3.org/2000/svg">
<path d="M2.73495 9.73502L7.73495 4.73501C7.80527 4.66479 7.90058 4.62535 7.99995 4.62535C8.09933 4.62535 8.19464 4.66479 8.26495 4.73501L13.265 9.73502C13.3312 9.8061 13.3673 9.90013 13.3655 9.99728C13.3638 10.0944 13.3245 10.1871 13.2558 10.2558C13.1871 10.3245 13.0944 10.3639 12.9972 10.3656C12.9001 10.3673 12.806 10.3313 12.735 10.265L7.99995 5.53064L3.26495 10.265C3.19387 10.3313 3.09984 10.3673 3.00269 10.3656C2.90554 10.3639 2.81285 10.3245 2.74414 10.2558C2.67544 10.1871 2.63608 10.0944 2.63437 9.99728C2.63265 9.90013 2.66871 9.8061 2.73495 9.73502Z" fill="white"/>
</svg>
